<?xml version="1.0" encoding="UTF-8"?>
<svg id="Layer_2" data-name="Layer 2" xmlns="http://www.w3.org/2000/svg" viewBox="0 0 583.26 208.59">
  <defs>
    <style>
      .cls-1 {
        fill: #ffa260;
      }

      .cls-2, .cls-3 {
        fill: #373138;
      }

      .cls-3 {
        font-family: Unbounded-Medium, Unbounded;
        font-size: 117.5px;
        font-weight: 500;
      }
    </style>
  </defs>
  <g id="Layer_2-2" data-name="Layer 2">
    <g>
      <g>
        <rect class="cls-2" x="12.18" y="81.16" width="58.8" height="58.8" transform="translate(-66 61.79) rotate(-45)"/>
        <polygon class="cls-2" points="145.49 68.98 103.91 110.57 103.91 110.57 51.96 162.52 93.54 204.1 145.49 152.15 149.59 148.05 187.07 110.57 145.49 68.98"/>
        <rect class="cls-1" x="178.45" y="18.8" width="58.8" height="58.8" transform="translate(26.79 161.09) rotate(-45)"/>
      </g>
      <g>
        <text class="cls-3" transform="translate(276.6 102.81)"><tspan x="0" y="0">haul</tspan></text>
        <g>
          <path class="cls-2" d="m346.73,198.29l-8.29.1,13.43-66.3h29.12l-20.37,38.25,1.26,38.25h-35.39l-24.38-63.75h11.01l-24.38,63.75h-35.39l-.66-38.25-19.67-38.25h29.24l14.64,66.19-8.17-.1,24.38-66.09h29l24.62,66.19Z"/>
          <path class="cls-2" d="m420.14,170.34l-5.56,29.58-10.77-10.3h63.45l4.14,18.97h-84.16l6.63-38.25-6.63-38.25h83.57l-3.55,18.97h-63.45l10.77-10.3,5.56,29.58Zm47.11-8.36l-1.7,8.36,1.7,8.36h-65.93v-16.73h65.93Z"/>
          <path class="cls-2" d="m541.75,168.81l3.97-.22c6.71.14,15.86-.57,20.36,1.09,4.5,1.67,7.85,3.96,10.06,6.88,2.21,2.92,3.31,6.36,3.31,10.3,0,4.15-1.09,7.87-3.26,11.17-2.17,3.3-5.47,5.88-9.88,7.75-4.42,1.87-9.9,2.81-16.45,2.81h-67.59l6.75-39.27-6.75-37.23h61.38c8.21,0,14.62,1.65,19.23,4.95,4.62,3.3,6.92,7.87,6.92,13.72,0,3.26-.85,6.36-2.55,9.28-1.7,2.92-4.5,5.39-8.4,7.39-3.91,2.01-10.65.83-17.12,1.38Zm-32.48,34.48l-10.53-10.81h42.97c3.08,0,5.48-.66,7.22-1.99,1.74-1.33,2.6-3.18,2.6-5.56,0-2.24-.91-4.1-2.72-5.56-1.82-1.46-4.46-2.19-7.93-2.19h-35.75v-15.71h28.11c2.45,0,4.5-.64,6.16-1.94,1.66-1.29,2.49-2.99,2.49-5.1,0-1.77-.73-3.25-2.19-4.44-1.46-1.19-3.53-1.78-6.21-1.78h-34.62l10.42-10.81,6.04,31.92-6.04,33.96Z"/>
        </g>
      </g>
    </g>
  </g>
</svg>